<svg width="24" height="25" viewBox="0 0 24 25" fill="none" xmlns="http://www.w3.org/2000/svg">
<g clip-path="url(#clip0_132_1890)">
<path d="M20.8134 3.15126C20.2181 2.60282 17.8087 0.854385 12.4368 0.830947C12.4368 0.830947 6.104 0.45126 3.01963 3.28251C1.304 4.99813 0.699315 7.51532 0.63369 10.6325C0.568065 13.7497 0.488377 19.5903 6.11806 21.1747H6.12275L6.11806 23.5934C6.11806 23.5934 6.08056 24.5731 6.72744 24.77C7.50556 25.0138 7.96494 24.2684 8.71025 23.4669C9.11806 23.0263 9.68056 22.3794 10.1071 21.8872C13.9603 22.2106 16.9181 21.47 17.2556 21.3622C18.0337 21.1091 22.4353 20.5466 23.1478 14.7059C23.8884 8.67782 22.7915 4.87157 20.8134 3.15126ZM21.4649 14.2653C20.8603 19.1403 17.2931 19.4497 16.6368 19.6606C16.3556 19.7497 13.754 20.3966 10.4868 20.1856C10.4868 20.1856 8.04931 23.1247 7.28994 23.8888C7.0415 24.1372 6.76963 24.1138 6.77431 23.6216C6.77431 23.2981 6.79306 19.6044 6.79306 19.6044C6.78838 19.6044 6.78838 19.6044 6.79306 19.6044C2.02119 18.2825 2.30244 13.3091 2.354 10.7075C2.40556 8.10595 2.89775 5.97313 4.35088 4.53876C6.96181 2.17157 12.3384 2.52313 12.3384 2.52313C16.8806 2.54188 19.0556 3.91063 19.5618 4.37001C21.2353 5.80438 22.0884 9.23563 21.4649 14.2653ZM14.9493 10.4778C14.9681 10.8809 14.3634 10.9091 14.3446 10.5059C14.2931 9.4747 13.8103 8.97313 12.8165 8.91688C12.4134 8.89345 12.4509 8.28876 12.8493 8.3122C14.1571 8.38251 14.8837 9.13251 14.9493 10.4778ZM15.9009 11.0075C15.9478 9.02001 14.7056 7.46376 12.3478 7.29032C11.9493 7.2622 11.9915 6.65751 12.3899 6.68563C15.1087 6.88251 16.5571 8.75282 16.5056 11.0216C16.5009 11.4247 15.8915 11.4059 15.9009 11.0075ZM18.104 11.6356C18.1087 12.0388 17.4993 12.0434 17.4993 11.6403C17.4712 7.82001 14.9259 5.73876 11.8368 5.71532C11.4384 5.71063 11.4384 5.11063 11.8368 5.11063C15.2915 5.13407 18.0712 7.52001 18.104 11.6356ZM17.5743 16.2341V16.2434C17.0681 17.1341 16.1212 18.1184 15.1462 17.8044L15.1368 17.7903C14.1478 17.5138 11.8181 16.3138 10.3462 15.1419C9.58681 14.5419 8.89306 13.8341 8.35869 13.1544C7.87588 12.5497 7.38838 11.8325 6.91494 10.97C5.9165 9.16532 5.69619 8.35907 5.69619 8.35907C5.38213 7.38407 6.36181 6.4372 7.25713 5.93095H7.2665C7.69775 5.70595 8.11025 5.78095 8.38681 6.11376C8.38681 6.11376 8.96807 6.80751 9.2165 7.1497C9.45088 7.46845 9.76494 7.97938 9.929 8.26532C10.2149 8.77626 10.0368 9.29657 9.75556 9.5122L9.19306 9.9622C8.90713 10.1919 8.94463 10.6184 8.94463 10.6184C8.94463 10.6184 9.779 13.7731 12.8962 14.57C12.8962 14.57 13.3228 14.6075 13.5524 14.3216L14.0024 13.7591C14.2181 13.4778 14.7384 13.2997 15.2493 13.5856C15.9384 13.9747 16.8149 14.5794 17.3962 15.1278C17.7243 15.395 17.7993 15.8028 17.5743 16.2341Z" fill="#7C2CBD"/>
</g>
<defs>
<clipPath id="clip0_132_1890">
<rect width="24" height="24" fill="white" transform="translate(0 0.812012)"/>
</clipPath>
</defs>
</svg>
