<svg width="24" height="25" viewBox="0 0 24 25" fill="none" xmlns="http://www.w3.org/2000/svg">
<path d="M19.7446 4.9475C19.2215 4.49053 17.1044 3.03368 12.3841 3.01415C12.3841 3.01415 6.81952 2.69778 4.1093 5.05686C2.60178 6.48637 2.07045 8.58376 2.01278 11.1811C1.95512 13.7784 1.8851 18.645 6.83188 19.9651H6.836L6.83188 21.9805C6.83188 21.9805 6.79893 22.7968 7.36733 22.9609C8.05107 23.164 8.45472 22.5429 9.10962 21.8751C9.46797 21.5079 9.96223 20.9689 10.3371 20.5588C13.7228 20.8283 16.3218 20.2112 16.6184 20.1214C17.3021 19.9105 21.1697 19.4418 21.7958 14.5752C22.4466 9.55239 21.4828 6.38091 19.7446 4.9475ZM20.3171 14.2081C19.7858 18.27 16.6513 18.5278 16.0747 18.7036C15.8275 18.7778 13.5415 19.3168 10.6707 19.141C10.6707 19.141 8.52886 21.5899 7.8616 22.2266C7.6433 22.4336 7.4044 22.4141 7.40852 22.004C7.40852 21.7345 7.425 18.6567 7.425 18.6567C7.42088 18.6567 7.42088 18.6567 7.425 18.6567C3.23197 17.5553 3.47911 13.4113 3.52442 11.2436C3.56972 9.07589 4.00221 7.29877 5.27906 6.10361C7.57328 4.1312 12.2976 4.42413 12.2976 4.42413C16.2888 4.43975 18.2 5.58023 18.6448 5.963C20.1153 7.15816 20.8649 10.0172 20.3171 14.2081ZM14.5919 11.0522C14.6083 11.3881 14.077 11.4115 14.0605 11.0756C14.0152 10.2164 13.591 9.79845 12.7178 9.75159C12.3635 9.73206 12.3965 9.22821 12.7466 9.24774C13.8958 9.30633 14.5342 9.93125 14.5919 11.0522ZM15.428 11.4936C15.4692 9.83751 14.3777 8.5408 12.3059 8.39629C11.9558 8.37285 11.9928 7.86901 12.3429 7.89244C14.7319 8.05649 16.0046 9.61488 15.9593 11.5053C15.9552 11.8412 15.4198 11.8255 15.428 11.4936ZM17.3639 12.0169C17.368 12.3528 16.8325 12.3567 16.8325 12.0208C16.8078 8.83764 14.5713 7.10348 11.8569 7.08395C11.5068 7.08005 11.5068 6.58011 11.8569 6.58011C14.8925 6.59964 17.335 8.58767 17.3639 12.0169ZM16.8984 15.8485V15.8563C16.4536 16.5984 15.6216 17.4186 14.7649 17.1569L14.7566 17.1452C13.8875 16.9147 11.8404 15.9149 10.5471 14.9384C9.87985 14.4385 9.27026 13.8487 8.80071 13.2824C8.37646 12.7785 7.9481 12.181 7.53209 11.4623C6.65477 9.95859 6.46118 9.2868 6.46118 9.2868C6.18521 8.4744 7.04606 7.68544 7.83277 7.26362H7.84101C8.21994 7.07614 8.58241 7.13863 8.82542 7.41594C8.82542 7.41594 9.33616 7.99399 9.55446 8.27911C9.76041 8.54471 10.0364 8.97043 10.1805 9.20868C10.4318 9.63441 10.2753 10.068 10.0281 10.2476L9.53387 10.6226C9.28262 10.814 9.31557 11.1694 9.31557 11.1694C9.31557 11.1694 10.0487 13.798 12.7878 14.4619C12.7878 14.4619 13.1626 14.4932 13.3644 14.2549L13.7598 13.7862C13.9493 13.5519 14.4065 13.4035 14.8555 13.6417C15.4609 13.9659 16.2312 14.4697 16.7419 14.9267C17.0302 15.1493 17.0961 15.4891 16.8984 15.8485Z" fill="#7C2CBD"/>
</svg>
