<svg width="24" height="25" viewBox="0 0 24 25" fill="none" xmlns="http://www.w3.org/2000/svg">
<g clip-path="url(#clip0_132_1894)">
<path d="M12 0.687012C5.57812 0.687012 0.375 5.89014 0.375 12.312C0.375 18.7339 5.57812 23.937 12 23.937C18.4219 23.937 23.625 18.7339 23.625 12.312C23.625 5.89014 18.4219 0.687012 12 0.687012ZM17.7094 8.65107L15.8016 17.6417C15.6609 18.2792 15.2813 18.4339 14.7516 18.1339L11.8453 15.9917L10.4438 17.3417C10.2891 17.4964 10.1578 17.6276 9.85781 17.6276L10.0641 14.6698L15.45 9.8042C15.6844 9.59795 15.3984 9.48076 15.0891 9.68701L8.43281 13.8776L5.56406 12.9823C4.94062 12.7854 4.92656 12.3589 5.69531 12.0589L16.9031 7.73701C17.4234 7.54951 17.8781 7.86357 17.7094 8.65107Z" fill="#1EC1C4"/>
</g>
<defs>
<clipPath id="clip0_132_1894">
<rect width="23.25" height="24" fill="white" transform="translate(0.375 0.312012)"/>
</clipPath>
</defs>
</svg>
