<svg width="32" height="32" viewBox="0 0 32 32" fill="none" xmlns="http://www.w3.org/2000/svg">
<g clip-path="url(#clip0_215_338)">
<path d="M32 16.3877C32 7.82734 24.8365 0.887695 16 0.887695C7.1635 0.887695 0 7.82734 0 16.3877C0 24.1241 5.851 30.5367 13.5 31.6994V20.8682H9.4375V16.3877H13.5V12.9729C13.5 9.08816 15.8888 6.94238 19.5435 6.94238C21.294 6.94238 23.125 7.24512 23.125 7.24512V11.0596H21.1075C19.1199 11.0596 18.5 12.2544 18.5 13.4802V16.3877H22.9375L22.2281 20.8682H18.5V31.6994C26.149 30.5367 32 24.1243 32 16.3877Z" fill="#1877F2"/>
<path d="M22.2281 20.8682L22.9375 16.3877H18.5V13.4802C18.5 12.2543 19.1199 11.0596 21.1075 11.0596H23.125V7.24512C23.125 7.24512 21.294 6.94238 19.5434 6.94238C15.8888 6.94238 13.5 9.08816 13.5 12.9729V16.3877H9.4375V20.8682H13.5V31.6994C14.327 31.8249 15.1629 31.8879 16 31.8877C16.8371 31.8879 17.673 31.8249 18.5 31.6994V20.8682H22.2281Z" fill="white"/>
</g>
<defs>
<clipPath id="clip0_215_338">
<rect width="32" height="31" fill="white" transform="translate(0 0.887695)"/>
</clipPath>
</defs>
</svg>
