<svg width="32" height="33" viewBox="0 0 32 33" fill="none" xmlns="http://www.w3.org/2000/svg">
<g clip-path="url(#clip0_137_2377)">
<path d="M32 16.312C32 7.47551 24.8365 0.312012 16 0.312012C7.1635 0.312012 0 7.47551 0 16.312C0 24.298 5.851 30.9174 13.5 32.1176V20.937H9.4375V16.312H13.5V12.787C13.5 8.77701 15.8888 6.56201 19.5435 6.56201C21.294 6.56201 23.125 6.87451 23.125 6.87451V10.812H21.1075C19.1199 10.812 18.5 12.0454 18.5 13.3108V16.312H22.9375L22.2281 20.937H18.5V32.1176C26.149 30.9174 32 24.2981 32 16.312Z" fill="#1877F2"/>
<path d="M22.2281 20.937L22.9375 16.312H18.5V13.3108C18.5 12.0453 19.1199 10.812 21.1075 10.812H23.125V6.87451C23.125 6.87451 21.294 6.56201 19.5434 6.56201C15.8888 6.56201 13.5 8.77701 13.5 12.787V16.312H9.4375V20.937H13.5V32.1176C14.327 32.2472 15.1629 32.3122 16 32.312C16.8371 32.3122 17.673 32.2472 18.5 32.1176V20.937H22.2281Z" fill="white"/>
</g>
<defs>
<clipPath id="clip0_137_2377">
<rect width="32" height="32" fill="white" transform="translate(0 0.312012)"/>
</clipPath>
</defs>
</svg>
