<svg width="48" height="48" viewBox="0 0 48 48" fill="none" xmlns="http://www.w3.org/2000/svg">
<g clip-path="url(#clip0_130_1816)">
<path d="M46.9395 24.2173C46.9395 22.2812 46.7833 20.8684 46.4451 19.4033H24.457V28.1417H37.3636C37.1034 30.3133 35.6983 33.5837 32.5757 35.7813L32.5319 36.0739L39.4841 41.489L39.9658 41.5374C44.3893 37.4297 46.9395 31.386 46.9395 24.2173Z" fill="#4285F4"/>
<path d="M24.4584 47.2409C30.7815 47.2409 36.0898 45.1477 39.9671 41.5373L32.577 35.7813C30.5994 37.1679 27.9452 38.136 24.4584 38.136C18.2653 38.136 13.009 34.0285 11.1353 28.3511L10.8607 28.3745L3.63165 33.9996L3.53711 34.2638C7.38824 41.9558 15.2988 47.2409 24.4584 47.2409Z" fill="#34A853"/>
<path d="M11.1353 28.3509C10.6409 26.8858 10.3547 25.3159 10.3547 23.6938C10.3547 22.0716 10.6409 20.5019 11.1093 19.0368L11.0962 18.7247L3.77654 13.0093L3.53706 13.1238C1.94982 16.3158 1.03906 19.9002 1.03906 23.6938C1.03906 27.4875 1.94982 31.0717 3.53706 34.2637L11.1353 28.3509Z" fill="#FBBC05"/>
<path d="M24.4584 9.25169C28.8559 9.25169 31.8223 11.1616 33.5138 12.7577L40.1232 6.26915C36.064 2.4755 30.7815 0.146973 24.4584 0.146973C15.2988 0.146973 7.38824 5.43189 3.53711 13.1238L11.1093 19.0368C13.009 13.3594 18.2653 9.25169 24.4584 9.25169Z" fill="#EB4335"/>
</g>
<defs>
<clipPath id="clip0_130_1816">
<rect width="47" height="47.256" fill="white" transform="translate(0.5 0.146973)"/>
</clipPath>
</defs>
</svg>
