<svg width="32" height="33" viewBox="0 0 32 33" fill="none" xmlns="http://www.w3.org/2000/svg">
<g clip-path="url(#clip0_137_2369)">
<path d="M24.5 0.312012H7.5C3.35786 0.312012 0 3.66988 0 7.81201V24.812C0 28.9541 3.35786 32.312 7.5 32.312H24.5C28.6421 32.312 32 28.9541 32 24.812V7.81201C32 3.66988 28.6421 0.312012 24.5 0.312012Z" fill="url(#paint0_radial_137_2369)"/>
<path d="M24.5 0.312012H7.5C3.35786 0.312012 0 3.66988 0 7.81201V24.812C0 28.9541 3.35786 32.312 7.5 32.312H24.5C28.6421 32.312 32 28.9541 32 24.812V7.81201C32 3.66988 28.6421 0.312012 24.5 0.312012Z" fill="url(#paint1_radial_137_2369)"/>
<path d="M16.0011 3.81201C12.6064 3.81201 12.1803 3.82689 10.847 3.88751C9.51625 3.94851 8.60787 4.15914 7.81313 4.46826C6.99088 4.78751 6.2935 5.21464 5.59875 5.90964C4.90338 6.60451 4.47625 7.30189 4.156 8.12376C3.846 8.91876 3.63512 9.82751 3.57525 11.1576C3.51562 12.491 3.5 12.9173 3.5 16.3121C3.5 19.707 3.515 20.1318 3.5755 21.465C3.63675 22.7958 3.84738 23.7041 4.15625 24.4989C4.47575 25.3211 4.90288 26.0185 5.59788 26.7133C6.2925 27.4086 6.98988 27.8368 7.8115 28.156C8.60687 28.4651 9.51537 28.6758 10.8459 28.7368C12.1792 28.7974 12.605 28.8123 15.9996 28.8123C19.3948 28.8123 19.8195 28.7974 21.1528 28.7368C22.4835 28.6758 23.3929 28.4651 24.1882 28.156C25.0101 27.8368 25.7065 27.4086 26.401 26.7133C27.0964 26.0185 27.5234 25.3211 27.8438 24.4993C28.151 23.7041 28.362 22.7955 28.4245 21.4653C28.4844 20.132 28.5 19.707 28.5 16.3121C28.5 12.9173 28.4844 12.4913 28.4245 11.1579C28.362 9.82714 28.151 8.91889 27.8438 8.12414C27.5234 7.30189 27.0964 6.60451 26.401 5.90964C25.7057 5.21439 25.0104 4.78726 24.1875 4.46839C23.3906 4.15914 22.4817 3.94839 21.151 3.88751C19.8176 3.82689 19.3931 3.81201 15.9972 3.81201H16.0011ZM14.8798 6.06464C15.2126 6.06414 15.584 6.06464 16.0011 6.06464C19.3388 6.06464 19.7342 6.07664 21.0522 6.13651C22.271 6.19226 22.9325 6.39589 23.3731 6.56701C23.9565 6.79351 24.3724 7.06439 24.8096 7.50201C25.2471 7.93951 25.5179 8.35614 25.745 8.93951C25.9161 9.37951 26.12 10.041 26.1755 11.2598C26.2354 12.5775 26.2484 12.9733 26.2484 16.3093C26.2484 19.6453 26.2354 20.0411 26.1755 21.3588C26.1198 22.5775 25.9161 23.239 25.745 23.6791C25.5185 24.2625 25.2471 24.6779 24.8096 25.1151C24.3721 25.5526 23.9568 25.8234 23.3731 26.05C22.933 26.2219 22.271 26.425 21.0522 26.4808C19.7345 26.5406 19.3388 26.5536 16.0011 26.5536C12.6634 26.5536 12.2677 26.5406 10.9501 26.4808C9.73137 26.4245 9.06987 26.2209 8.62887 26.0498C8.04562 25.8231 7.62887 25.5524 7.19137 25.1149C6.75387 24.6774 6.48312 24.2618 6.256 23.6781C6.08488 23.238 5.881 22.5765 5.8255 21.3578C5.76562 20.04 5.75362 19.6443 5.75362 16.3061C5.75362 12.968 5.76562 12.5744 5.8255 11.2566C5.88125 10.0379 6.08488 9.37639 6.256 8.93576C6.48263 8.35239 6.75388 7.93576 7.1915 7.49826C7.62913 7.06076 8.04562 6.78989 8.629 6.56289C9.06962 6.39101 9.73137 6.18789 10.9501 6.13189C12.1032 6.07976 12.5501 6.06414 14.8798 6.06151V6.06464ZM22.6736 8.14014C21.8455 8.14014 21.1736 8.81139 21.1736 9.63964C21.1736 10.4678 21.8455 11.1396 22.6736 11.1396C23.5018 11.1396 24.1736 10.4678 24.1736 9.63964C24.1736 8.81151 23.5018 8.13964 22.6736 8.13964V8.14014ZM16.0011 9.89276C12.4561 9.89276 9.58187 12.767 9.58187 16.3121C9.58187 19.8573 12.4561 22.7301 16.0011 22.7301C19.5462 22.7301 22.4195 19.8573 22.4195 16.3121C22.4195 12.7671 19.546 9.89276 16.0009 9.89276H16.0011ZM16.0011 12.1454C18.3022 12.1454 20.1679 14.0108 20.1679 16.3121C20.1679 18.6133 18.3022 20.4789 16.0011 20.4789C13.7 20.4789 11.8345 18.6133 11.8345 16.3121C11.8345 14.0108 13.6999 12.1454 16.0011 12.1454Z" fill="white"/>
</g>
<defs>
<radialGradient id="paint0_radial_137_2369" cx="0" cy="0" r="1" gradientUnits="userSpaceOnUse" gradientTransform="translate(8.5 34.7766) rotate(-90) scale(31.7144 29.4969)">
<stop stop-color="#FFDD55"/>
<stop offset="0.1" stop-color="#FFDD55"/>
<stop offset="0.5" stop-color="#FF543E"/>
<stop offset="1" stop-color="#C837AB"/>
</radialGradient>
<radialGradient id="paint1_radial_137_2369" cx="0" cy="0" r="1" gradientUnits="userSpaceOnUse" gradientTransform="translate(-5.36012 2.61714) rotate(78.681) scale(14.1765 58.436)">
<stop stop-color="#3771C8"/>
<stop offset="0.128" stop-color="#3771C8"/>
<stop offset="1" stop-color="#6600FF" stop-opacity="0"/>
</radialGradient>
<clipPath id="clip0_137_2369">
<rect width="32" height="32" fill="white" transform="translate(0 0.312012)"/>
</clipPath>
</defs>
</svg>
