<svg width="32" height="32" viewBox="0 0 32 32" fill="none" xmlns="http://www.w3.org/2000/svg">
<path d="M24.5 0.387695H7.5C3.35786 0.387695 0 3.70488 0 7.79683V24.5909C0 28.6828 3.35786 32 7.5 32H24.5C28.6421 32 32 28.6828 32 24.5909V7.79683C32 3.70488 28.6421 0.387695 24.5 0.387695Z" fill="url(#paint0_radial_215_331)"/>
<path d="M24.5 0.387695H7.5C3.35786 0.387695 0 3.70488 0 7.79683V24.5909C0 28.6828 3.35786 32 7.5 32H24.5C28.6421 32 32 28.6828 32 24.5909V7.79683C32 3.70488 28.6421 0.387695 24.5 0.387695Z" fill="url(#paint1_radial_215_331)"/>
<path d="M16.0011 3.84521C12.6064 3.84521 12.1803 3.85991 10.847 3.9198C9.51625 3.98006 8.60788 4.18813 7.81313 4.49351C6.99088 4.8089 6.2935 5.23085 5.59875 5.91743C4.90338 6.60388 4.47625 7.29281 4.156 8.10473C3.846 8.89009 3.63512 9.78783 3.57525 11.1018C3.51562 12.4191 3.5 12.8402 3.5 16.1939C3.5 19.5476 3.515 19.9672 3.5755 21.2843C3.63675 22.599 3.84738 23.4963 4.15625 24.2815C4.47575 25.0937 4.90288 25.7827 5.59788 26.469C6.2925 27.156 6.98988 27.5789 7.8115 27.8943C8.60688 28.1997 9.51537 28.4077 10.8459 28.468C12.1792 28.5279 12.605 28.5426 15.9996 28.5426C19.3948 28.5426 19.8195 28.5279 21.1528 28.468C22.4835 28.4077 23.3929 28.1997 24.1882 27.8943C25.0101 27.5789 25.7065 27.156 26.401 26.469C27.0964 25.7827 27.5234 25.0937 27.8438 24.2818C28.151 23.4963 28.362 22.5987 28.4245 21.2846C28.4844 19.9675 28.5 19.5476 28.5 16.1939C28.5 12.8402 28.4844 12.4193 28.4245 11.1021C28.362 9.78746 28.151 8.89022 27.8438 8.1051C27.5234 7.29281 27.0964 6.60388 26.401 5.91743C25.7057 5.2306 25.0104 4.80865 24.1875 4.49364C23.3906 4.18813 22.4817 3.97994 21.151 3.9198C19.8176 3.85991 19.3931 3.84521 15.9972 3.84521H16.0011ZM14.8798 6.07055C15.2126 6.07005 15.584 6.07055 16.0011 6.07055C19.3388 6.07055 19.7342 6.0824 21.0522 6.14155C22.271 6.19663 22.9325 6.39778 23.3731 6.56684C23.9565 6.79059 24.3724 7.05819 24.8096 7.49051C25.2471 7.92271 25.5179 8.33428 25.745 8.91059C25.9161 9.34526 26.12 9.99875 26.1755 11.2027C26.2354 12.5045 26.2484 12.8955 26.2484 16.1911C26.2484 19.4866 26.2354 19.8777 26.1755 21.1794C26.1198 22.3834 25.9161 23.0368 25.745 23.4716C25.5185 24.0479 25.2471 24.4583 24.8096 24.8902C24.3721 25.3224 23.9568 25.5899 23.3731 25.8138C22.933 25.9836 22.271 26.1842 21.0522 26.2393C19.7345 26.2985 19.3388 26.3113 16.0011 26.3113C12.6634 26.3113 12.2677 26.2985 10.9501 26.2393C9.73137 26.1838 9.06987 25.9826 8.62887 25.8135C8.04562 25.5897 7.62887 25.3222 7.19137 24.89C6.75387 24.4578 6.48313 24.0472 6.256 23.4707C6.08488 23.0359 5.881 22.3824 5.8255 21.1784C5.76563 19.8766 5.75362 19.4856 5.75362 16.188C5.75362 12.8903 5.76563 12.5014 5.8255 11.1996C5.88125 9.99566 6.08488 9.34217 6.256 8.90689C6.48263 8.33058 6.75388 7.919 7.1915 7.4868C7.62913 7.0546 8.04562 6.78701 8.629 6.56276C9.06962 6.39297 9.73137 6.1923 10.9501 6.13698C12.1032 6.08549 12.5501 6.07005 14.8798 6.06746V6.07055ZM22.6736 8.1209C21.8455 8.1209 21.1736 8.78402 21.1736 9.60224C21.1736 10.4203 21.8455 11.0841 22.6736 11.0841C23.5018 11.0841 24.1736 10.4203 24.1736 9.60224C24.1736 8.78414 23.5018 8.12041 22.6736 8.12041V8.1209ZM16.0011 9.85229C12.4561 9.85229 9.58187 12.6917 9.58187 16.1939C9.58187 19.6961 12.4561 22.5341 16.0011 22.5341C19.5463 22.5341 22.4195 19.6961 22.4195 16.1939C22.4195 12.6918 19.546 9.85229 16.0009 9.85229H16.0011ZM16.0011 12.0776C18.3023 12.0776 20.1679 13.9204 20.1679 16.1939C20.1679 18.4671 18.3023 20.3102 16.0011 20.3102C13.7 20.3102 11.8345 18.4671 11.8345 16.1939C11.8345 13.9204 13.6999 12.0776 16.0011 12.0776Z" fill="white"/>
<defs>
<radialGradient id="paint0_radial_215_331" cx="0" cy="0" r="1" gradientUnits="userSpaceOnUse" gradientTransform="translate(8.5 34.4348) rotate(-90) scale(31.3301 29.4969)">
<stop stop-color="#FFDD55"/>
<stop offset="0.1" stop-color="#FFDD55"/>
<stop offset="0.5" stop-color="#FF543E"/>
<stop offset="1" stop-color="#C837AB"/>
</radialGradient>
<radialGradient id="paint1_radial_215_331" cx="0" cy="0" r="1" gradientUnits="userSpaceOnUse" gradientTransform="translate(-5.36012 2.66489) rotate(78.5458) scale(14.0114 58.4082)">
<stop stop-color="#3771C8"/>
<stop offset="0.128" stop-color="#3771C8"/>
<stop offset="1" stop-color="#6600FF" stop-opacity="0"/>
</radialGradient>
</defs>
</svg>
