<svg width="24" height="25" viewBox="0 0 24 25" fill="none" xmlns="http://www.w3.org/2000/svg">
<path fill-rule="evenodd" clip-rule="evenodd" d="M18.378 5.94004C17.5474 5.10456 16.5593 4.44211 15.471 3.99102C14.3826 3.53992 13.2156 3.30915 12.0375 3.31204C7.09875 3.31204 3.075 7.33204 3.075 12.2708C3.0719 13.8433 3.48431 15.3887 4.2705 16.7505L3 21.3938L7.752 20.1458C9.06602 20.8615 10.5382 21.2372 12.0345 21.2385H12.0382C16.9778 21.2385 20.997 17.2193 21 12.2768C21 9.88354 20.0685 7.63354 18.378 5.93929V5.94004ZM12.0375 19.7243H12.0345C10.7007 19.7243 9.39131 19.3661 8.24325 18.687L7.971 18.5258L5.1495 19.2645L5.9025 16.5158L5.727 16.2345C4.9803 15.0475 4.58505 13.6732 4.587 12.2708C4.587 8.16679 7.92975 4.82704 12.0405 4.82704C13.0188 4.82447 13.9879 5.01605 14.8917 5.39069C15.7955 5.76532 16.6159 6.31557 17.3055 7.00954C17.9984 7.70021 18.5477 8.52125 18.9216 9.42529C19.2956 10.3293 19.4868 11.2985 19.4842 12.2768C19.4842 16.3845 16.1422 19.7243 12.0375 19.7243ZM16.1213 14.1458C15.8985 14.0348 14.7967 13.4933 14.592 13.4198C14.3872 13.3433 14.2373 13.308 14.088 13.5308C13.938 13.7558 13.5105 14.2605 13.3793 14.4098C13.2503 14.556 13.1182 14.577 12.8955 14.4653C12.6705 14.3543 11.9497 14.1165 11.094 13.3523C10.4288 12.7598 9.978 12.0248 9.849 11.802C9.717 11.577 9.834 11.457 9.94575 11.3445C10.0477 11.2455 10.1708 11.0843 10.2825 10.9523C10.3935 10.824 10.4325 10.7303 10.5075 10.5803C10.581 10.431 10.5435 10.299 10.4872 10.188C10.4317 10.077 9.984 8.97229 9.7965 8.52379C9.61425 8.08729 9.42975 8.14879 9.2925 8.14054C9.1635 8.13454 9.01425 8.13454 8.865 8.13454C8.715 8.13454 8.472 8.19004 8.2665 8.41579C8.06175 8.63854 7.48425 9.18079 7.48425 10.2818C7.48425 11.3835 8.28675 12.4493 8.39925 12.5993C8.51025 12.7455 9.978 15.0068 12.2242 15.9773C12.6406 16.1571 13.0662 16.3146 13.4993 16.449C14.0355 16.6185 14.5245 16.5953 14.9115 16.539C15.342 16.4753 16.2352 15.9975 16.4227 15.4733C16.608 14.952 16.608 14.5035 16.5518 14.4098C16.4963 14.316 16.347 14.2598 16.1213 14.1458Z" fill="#11A609"/>
</svg>
