<svg width="32" height="33" viewBox="0 0 32 33" fill="none" xmlns="http://www.w3.org/2000/svg">
<g clip-path="url(#clip0_137_2374)">
<path d="M16 0.312012C11.7575 0.312012 7.685 1.99876 4.6875 4.99826C1.68693 7.99897 0.000858621 12.0685 0 16.312C0 20.5538 1.6875 24.6263 4.6875 27.6258C7.685 30.6253 11.7575 32.312 16 32.312C20.2425 32.312 24.315 30.6253 27.3125 27.6258C30.3125 24.6263 32 20.5538 32 16.312C32 12.0703 30.3125 7.99776 27.3125 4.99826C24.315 1.99876 20.2425 0.312012 16 0.312012Z" fill="url(#paint0_linear_137_2374)"/>
<path d="M7.24311 16.1431C11.9081 14.1111 15.0181 12.7714 16.5731 12.1241C21.0181 10.2758 21.9406 9.95482 22.5431 9.94394C22.6756 9.94182 22.9706 9.97457 23.1631 10.1302C23.3231 10.2614 23.3681 10.4389 23.3906 10.5636C23.4106 10.6881 23.4381 10.9718 23.4156 11.1933C23.1756 13.7233 22.1331 19.8628 21.6031 22.6966C21.3806 23.8956 20.9381 24.2976 20.5106 24.3368C19.5806 24.4223 18.8756 23.7228 17.9756 23.1331C16.5681 22.2098 15.7731 21.6353 14.4056 20.7346C12.8256 19.6936 13.8506 19.1213 14.7506 18.1863C14.9856 17.9416 19.0806 14.2178 19.1581 13.8801C19.1681 13.8378 19.1781 13.6803 19.0831 13.5973C18.9906 13.5141 18.8531 13.5426 18.7531 13.5651C18.6106 13.5971 16.3631 15.0841 12.0031 18.0258C11.3656 18.4643 10.7881 18.6781 10.2681 18.6668C9.69811 18.6546 8.59811 18.3438 7.78061 18.0783C6.78061 17.7526 5.98311 17.5803 6.05311 17.0271C6.08811 16.7391 6.48561 16.4443 7.24311 16.1431Z" fill="white"/>
</g>
<defs>
<linearGradient id="paint0_linear_137_2374" x1="1600" y1="0.312012" x2="1600" y2="3200.31" gradientUnits="userSpaceOnUse">
<stop stop-color="#2AABEE"/>
<stop offset="1" stop-color="#229ED9"/>
</linearGradient>
<clipPath id="clip0_137_2374">
<rect width="32" height="32" fill="white" transform="translate(0 0.312012)"/>
</clipPath>
</defs>
</svg>
