<svg width="32" height="32" viewBox="0 0 32 32" fill="none" xmlns="http://www.w3.org/2000/svg">
<g clip-path="url(#clip0_215_335)">
<path d="M16 0.887695C11.7575 0.887695 7.685 2.52173 4.6875 5.4275C1.68693 8.33443 0.000858621 12.2768 0 16.3877C0 20.4969 1.6875 24.4421 4.6875 27.3479C7.685 30.2537 11.7575 31.8877 16 31.8877C20.2425 31.8877 24.315 30.2537 27.3125 27.3479C30.3125 24.4421 32 20.4969 32 16.3877C32 12.2785 30.3125 8.33327 27.3125 5.4275C24.315 2.52173 20.2425 0.887695 16 0.887695Z" fill="url(#paint0_linear_215_335)"/>
<path d="M7.24311 16.2242C11.9081 14.2557 15.0181 12.9579 16.5731 12.3308C21.0181 10.5403 21.9406 10.2294 22.5431 10.2188C22.6756 10.2168 22.9706 10.2485 23.1631 10.3993C23.3231 10.5264 23.3681 10.6984 23.3906 10.8191C23.4106 10.9397 23.4381 11.2146 23.4156 11.4292C23.1756 13.8801 22.1331 19.8278 21.6031 22.5729C21.3806 23.7345 20.9381 24.1239 20.5106 24.1619C19.5806 24.2448 18.8756 23.5671 17.9756 22.9958C16.5681 22.1014 15.7731 21.5449 14.4056 20.6723C12.8256 19.6638 13.8506 19.1094 14.7506 18.2036C14.9856 17.9665 19.0806 14.3592 19.1581 14.032C19.1681 13.991 19.1781 13.8385 19.0831 13.758C18.9906 13.6774 18.8531 13.705 18.7531 13.7268C18.6106 13.7578 16.3631 15.1983 12.0031 18.0482C11.3656 18.473 10.7881 18.68 10.2681 18.6691C9.69811 18.6573 8.59811 18.3562 7.78061 18.099C6.78061 17.7834 5.98311 17.6166 6.05311 17.0806C6.08811 16.8016 6.48561 16.5161 7.24311 16.2242Z" fill="white"/>
</g>
<defs>
<linearGradient id="paint0_linear_215_335" x1="1600" y1="0.887695" x2="1600" y2="3100.89" gradientUnits="userSpaceOnUse">
<stop stop-color="#2AABEE"/>
<stop offset="1" stop-color="#229ED9"/>
</linearGradient>
<clipPath id="clip0_215_335">
<rect width="32" height="31" fill="white" transform="translate(0 0.887695)"/>
</clipPath>
</defs>
</svg>
