<svg aria-hidden="true" style="position: absolute; width: 0; height: 0; overflow: hidden;" version="1.1" xmlns="http://www.w3.org/2000/svg" xmlns:xlink="http://www.w3.org/1999/xlink">
  <defs>

<symbol id="icon-solar_notebook-broken" viewBox="0 0 32 32">
<path stroke-width="2" stroke-miterlimit="4" stroke-linecap="round" stroke-linejoin="miter" d="M28 21.333c0 3.771 0 5.657-1.172 6.828-1.171 1.172-3.057 1.172-6.828 1.172h-8c-3.771 0-5.657 0-6.828-1.172-1.172-1.171-1.172-3.057-1.172-6.828v-10.667c0-3.771 0-5.657 1.172-6.828 1.171-1.172 3.057-1.172 6.828-1.172h8c3.771 0 5.657 0 6.828 1.172 1.172 1.171 1.172 3.057 1.172 6.828v5.333M10.667 2.667v5.333M10.667 29.333v-16M2.667 16h2.667M2.667 21.333h2.667M2.667 10.667h2.667M15.333 8.667h6.667M15.333 13.333h6.667"></path>
</symbol>

<symbol id="icon-flowbite_clock-outline" viewBox="0 0 32 32">
<path stroke-width="2" stroke-miterlimit="4" stroke-linecap="round" stroke-linejoin="round" d="M16 10.667v5.333l4 4M28 16c0 1.576-0.31 3.136-0.913 4.592s-1.487 2.779-2.601 3.893c-1.114 1.114-2.437 1.998-3.893 2.601s-3.016 0.913-4.592 0.913c-1.576 0-3.136-0.31-4.592-0.913s-2.779-1.487-3.893-2.601c-1.114-1.114-1.998-2.437-2.601-3.893s-0.913-3.016-0.913-4.592c0-3.183 1.264-6.235 3.515-8.485s5.303-3.515 8.485-3.515 6.235 1.264 8.485 3.515c2.25 2.25 3.515 5.303 3.515 8.485z"></path>
</symbol>

<symbol id="icon-lucide_notebook-text" viewBox="0 0 32 32">
<path stroke-width="2" stroke-miterlimit="4" stroke-linecap="round" stroke-linejoin="round" d="M2.667 8h5.333M2.667 13.333h5.333M2.667 18.667h5.333M2.667 24h5.333"></path>
<path stroke-width="2" stroke-miterlimit="4" stroke-linecap="round" stroke-linejoin="round" d="M24 2.667h-16c-1.473 0-2.667 1.194-2.667 2.667v21.333c0 1.473 1.194 2.667 2.667 2.667h16c1.473 0 2.667-1.194 2.667-2.667v-21.333c0-1.473-1.194-2.667-2.667-2.667z"></path>
<path stroke-width="2" stroke-miterlimit="4" stroke-linecap="round" stroke-linejoin="round" d="M12.667 10.667h6.667M12.667 16h8.667M12.667 21.333h6"></path>
</symbol>

<symbol id="icon-tel" viewBox="0 0 32 32">
<path d="M30.459 21.514l-7.558-3.387c-0.391-0.167-0.818-0.235-1.242-0.195s-0.831 0.183-1.185 0.419c-0.042 0.028-0.082 0.057-0.12 0.090l-3.894 3.32c-2.467-1.198-5.014-3.726-6.213-6.162l3.325-3.954c0.032-0.040 0.062-0.080 0.091-0.123 0.231-0.353 0.371-0.758 0.408-1.178s-0.031-0.843-0.197-1.231v-0.019l-3.387-7.55c-0.22-0.507-0.597-0.929-1.076-1.203s-1.034-0.387-1.583-0.32c-2.168 0.285-4.158 1.35-5.598 2.995s-2.233 3.759-2.229 5.945c0 12.704 10.336 23.040 23.040 23.040 2.187 0.004 4.3-0.788 5.945-2.229s2.71-3.43 2.995-5.598c0.067-0.548-0.045-1.103-0.319-1.582s-0.696-0.857-1.202-1.077zM23.040 29.44c-5.43-0.006-10.636-2.166-14.475-6.005s-5.999-9.045-6.005-14.475c-0.006-1.562 0.557-3.074 1.584-4.251s2.447-1.942 3.996-2.149c-0.001 0.006-0.001 0.013 0 0.019l3.36 7.52-3.307 3.958c-0.034 0.039-0.064 0.080-0.091 0.123-0.241 0.37-0.382 0.795-0.41 1.235s0.058 0.88 0.25 1.277c1.45 2.965 4.437 5.93 7.434 7.378 0.4 0.19 0.842 0.273 1.284 0.241s0.868-0.178 1.236-0.424c0.041-0.028 0.081-0.057 0.118-0.090l3.89-3.318 7.52 3.368h0.018c-0.205 1.551-0.967 2.974-2.145 4.003s-2.691 1.594-4.255 1.589z"></path>
</symbol>

<symbol id="icon-email" viewBox="0 0 41 32">
<path d="M33.938 0.485h-27.152c-1.543 0-3.023 0.613-4.114 1.704s-1.704 2.571-1.704 4.114v19.394c0 1.543 0.613 3.023 1.704 4.114s2.571 1.704 4.114 1.704h27.152c1.543 0 3.023-0.613 4.114-1.704s1.704-2.571 1.704-4.114v-19.394c0-1.543-0.613-3.023-1.704-4.114s-2.571-1.704-4.114-1.704zM33.143 4.364l-11.404 11.404c-0.18 0.182-0.395 0.326-0.631 0.425s-0.49 0.149-0.746 0.149c-0.256 0-0.509-0.051-0.746-0.149s-0.451-0.243-0.631-0.425l-11.404-11.404h25.561zM35.878 25.697c0 0.514-0.204 1.008-0.568 1.371s-0.857 0.568-1.371 0.568h-27.152c-0.514 0-1.008-0.204-1.371-0.568s-0.568-0.857-0.568-1.371v-18.599l11.404 11.404c1.091 1.090 2.57 1.702 4.111 1.702s3.021-0.612 4.112-1.702l11.404-11.404v18.599z"></path>
</symbol>

</defs>
</svg>