<svg aria-hidden="true" style="position: absolute; width: 0; height: 0; overflow: hidden;" version="1.1" xmlns="http://www.w3.org/2000/svg" xmlns:xlink="http://www.w3.org/1999/xlink">
  <defs>

<symbol id="icon-solar_notebook-broken" viewBox="0 0 32 32">
<path stroke-width="2" stroke-miterlimit="4" stroke-linecap="round" stroke-linejoin="miter" d="M28 21.333c0 3.771 0 5.657-1.172 6.828-1.171 1.172-3.057 1.172-6.828 1.172h-8c-3.771 0-5.657 0-6.828-1.172-1.172-1.171-1.172-3.057-1.172-6.828v-10.667c0-3.771 0-5.657 1.172-6.828 1.171-1.172 3.057-1.172 6.828-1.172h8c3.771 0 5.657 0 6.828 1.172 1.172 1.171 1.172 3.057 1.172 6.828v5.333M10.667 2.667v5.333M10.667 29.333v-16M2.667 16h2.667M2.667 21.333h2.667M2.667 10.667h2.667M15.333 8.667h6.667M15.333 13.333h6.667"></path>
</symbol>

<symbol id="icon-flowbite_clock-outline" viewBox="0 0 32 32">
<path stroke-width="2" stroke-miterlimit="4" stroke-linecap="round" stroke-linejoin="round" d="M16 10.667v5.333l4 4M28 16c0 1.576-0.31 3.136-0.913 4.592s-1.487 2.779-2.601 3.893c-1.114 1.114-2.437 1.998-3.893 2.601s-3.016 0.913-4.592 0.913c-1.576 0-3.136-0.31-4.592-0.913s-2.779-1.487-3.893-2.601c-1.114-1.114-1.998-2.437-2.601-3.893s-0.913-3.016-0.913-4.592c0-3.183 1.264-6.235 3.515-8.485s5.303-3.515 8.485-3.515 6.235 1.264 8.485 3.515c2.25 2.25 3.515 5.303 3.515 8.485z"></path>
</symbol>

<symbol id="icon-lucide_notebook-text" viewBox="0 0 32 32">
<path stroke-width="2" stroke-miterlimit="4" stroke-linecap="round" stroke-linejoin="round" d="M2.667 8h5.333M2.667 13.333h5.333M2.667 18.667h5.333M2.667 24h5.333"></path>
<path stroke-width="2" stroke-miterlimit="4" stroke-linecap="round" stroke-linejoin="round" d="M24 2.667h-16c-1.473 0-2.667 1.194-2.667 2.667v21.333c0 1.473 1.194 2.667 2.667 2.667h16c1.473 0 2.667-1.194 2.667-2.667v-21.333c0-1.473-1.194-2.667-2.667-2.667z"></path>
<path stroke-width="2" stroke-miterlimit="4" stroke-linecap="round" stroke-linejoin="round" d="M12.667 10.667h6.667M12.667 16h8.667M12.667 21.333h6"></path>
</symbol>

<symbol id="icon-tel" viewBox="0 0 32 32">
<path d="M30.459 21.514l-7.558-3.387c-0.391-0.167-0.818-0.235-1.242-0.195s-0.831 0.183-1.185 0.419c-0.042 0.028-0.082 0.057-0.12 0.090l-3.894 3.32c-2.467-1.198-5.014-3.726-6.213-6.162l3.325-3.954c0.032-0.040 0.062-0.080 0.091-0.123 0.231-0.353 0.371-0.758 0.408-1.178s-0.031-0.843-0.197-1.231v-0.019l-3.387-7.55c-0.22-0.507-0.597-0.929-1.076-1.203s-1.034-0.387-1.583-0.32c-2.168 0.285-4.158 1.35-5.598 2.995s-2.233 3.759-2.229 5.945c0 12.704 10.336 23.040 23.040 23.040 2.187 0.004 4.3-0.788 5.945-2.229s2.71-3.43 2.995-5.598c0.067-0.548-0.045-1.103-0.319-1.582s-0.696-0.857-1.202-1.077zM23.040 29.44c-5.43-0.006-10.636-2.166-14.475-6.005s-5.999-9.045-6.005-14.475c-0.006-1.562 0.557-3.074 1.584-4.251s2.447-1.942 3.996-2.149c-0.001 0.006-0.001 0.013 0 0.019l3.36 7.52-3.307 3.958c-0.034 0.039-0.064 0.080-0.091 0.123-0.241 0.37-0.382 0.795-0.41 1.235s0.058 0.88 0.25 1.277c1.45 2.965 4.437 5.93 7.434 7.378 0.4 0.19 0.842 0.273 1.284 0.241s0.868-0.178 1.236-0.424c0.041-0.028 0.081-0.057 0.118-0.090l3.89-3.318 7.52 3.368h0.018c-0.205 1.551-0.967 2.974-2.145 4.003s-2.691 1.594-4.255 1.589z"></path>
</symbol>

<symbol id="icon-email" viewBox="0 0 41 32">
<path d="M33.938 0.485h-27.152c-1.543 0-3.023 0.613-4.114 1.704s-1.704 2.571-1.704 4.114v19.394c0 1.543 0.613 3.023 1.704 4.114s2.571 1.704 4.114 1.704h27.152c1.543 0 3.023-0.613 4.114-1.704s1.704-2.571 1.704-4.114v-19.394c0-1.543-0.613-3.023-1.704-4.114s-2.571-1.704-4.114-1.704zM33.143 4.364l-11.404 11.404c-0.18 0.182-0.395 0.326-0.631 0.425s-0.49 0.149-0.746 0.149c-0.256 0-0.509-0.051-0.746-0.149s-0.451-0.243-0.631-0.425l-11.404-11.404h25.561zM35.878 25.697c0 0.514-0.204 1.008-0.568 1.371s-0.857 0.568-1.371 0.568h-27.152c-0.514 0-1.008-0.204-1.371-0.568s-0.568-0.857-0.568-1.371v-18.599l11.404 11.404c1.091 1.090 2.57 1.702 4.111 1.702s3.021-0.612 4.112-1.702l11.404-11.404v18.599z"></path>
</symbol>

<symbol id="icon-location" viewBox="0 0 31 32">
<path stroke-width="1.3061" stroke-miterlimit="4" stroke-linecap="butt" stroke-linejoin="round" d="M15.673 28.938c0 0 9.796-7.837 9.796-16.327 0-5.41-4.386-9.796-9.796-9.796s-9.796 4.386-9.796 9.796c0 8.49 9.796 16.327 9.796 16.327z"></path>
<path stroke-width="1.3061" stroke-miterlimit="4" stroke-linecap="butt" stroke-linejoin="round" d="M15.673 16.53c0.515 0 1.024-0.101 1.499-0.298s0.907-0.486 1.271-0.849c0.364-0.364 0.652-0.796 0.849-1.271s0.298-0.985 0.298-1.499-0.101-1.024-0.298-1.499c-0.197-0.475-0.486-0.907-0.849-1.271s-0.796-0.652-1.271-0.849c-0.475-0.197-0.985-0.298-1.499-0.298-1.039 0-2.036 0.413-2.771 1.148s-1.148 1.731-1.148 2.771 0.413 2.036 1.148 2.771c0.735 0.735 1.731 1.148 2.771 1.148z"></path>
</symbol>

<symbol id="icon-Group_email" viewBox="0 0 31 32">
<path stroke-width="1.3061" stroke-miterlimit="4" stroke-linecap="butt" stroke-linejoin="miter" d="M23.51 8.040h-15.673c-1.443 0-2.612 1.17-2.612 2.612v10.449c0 1.443 1.17 2.612 2.612 2.612h15.673c1.443 0 2.612-1.169 2.612-2.612v-10.449c0-1.443-1.17-2.612-2.612-2.612z"></path>
<path stroke-width="1.3061" stroke-miterlimit="4" stroke-linecap="butt" stroke-linejoin="miter" d="M5.224 11.959l9.281 4.641c0.363 0.181 0.762 0.276 1.168 0.276s0.805-0.094 1.168-0.276l9.281-4.641"></path>
</symbol>

<symbol id="icon-proicons_clock" viewBox="0 0 31 32">
<path stroke-width="1.3061" stroke-miterlimit="4" stroke-linecap="round" stroke-linejoin="round" d="M27.755 15.877c0 3.204-1.273 6.277-3.539 8.543s-5.339 3.539-8.543 3.539c-3.204 0-6.277-1.273-8.543-3.539s-3.539-5.339-3.539-8.543c0-3.204 1.273-6.277 3.539-8.543s5.339-3.539 8.543-3.539 6.277 1.273 8.543 3.539c2.266 2.266 3.539 5.339 3.539 8.543z"></path>
<path stroke-width="0.9796" stroke-miterlimit="4" stroke-linecap="round" stroke-linejoin="round" d="M14.694 9.020v7.837h5.225"></path>
</symbol>

<symbol id="icon-line-md_phone" viewBox="0 0 31 32">
<path stroke-width="1.3061" stroke-miterlimit="4" stroke-linecap="round" stroke-linejoin="round" d="M10.449 4.122c0.653 0 3.265 5.878 3.265 6.531 0 1.306-1.959 2.612-2.612 3.918s0.653 2.612 1.959 3.918c0.509 0.509 2.612 2.612 3.918 1.959s2.612-2.612 3.918-2.612c0.653 0 6.531 2.612 6.531 3.265 0 2.612-1.959 4.571-3.918 5.224s-3.265 0.653-5.878 0c-2.612-0.653-4.571-1.306-7.837-4.571s-3.918-5.224-4.571-7.837c-0.653-2.612-0.653-3.918 0-5.878s2.612-3.918 5.224-3.918z"></path>
</symbol>

<symbol id="icon-star" viewBox="0 0 34 32">
<path d="M16.914 0.14l3.9 12.069h12.621l-10.211 7.459 3.9 12.069-10.211-7.459-10.211 7.459 3.9-12.069-10.211-7.459h12.621l3.9-12.069z"></path>
</symbol>

<symbol id="icon-quote" viewBox="0 0 43 32">
<path d="M36.007 31.832l3.114-15.029h-6.715c0.52-2.798 1.379-4.945 2.579-6.442s3.228-2.505 6.083-3.025l1.459-6.832c-3.179 0.13-5.855 0.65-8.028 1.561s-3.974 2.098-5.401 3.562c-1.431 1.47-2.585 3.19-3.405 5.075-0.856 1.96-1.509 4.004-1.946 6.1l-3.114 15.030h15.375zM15.796 31.832l3.114-15.029h-6.715c0.52-2.798 1.379-4.945 2.579-6.442s3.228-2.505 6.083-3.025l1.459-6.832c-3.179 0.13-5.855 0.65-8.028 1.561s-3.974 2.098-5.401 3.562c-1.431 1.47-2.585 3.19-3.405 5.075-0.856 1.96-1.509 4.004-1.946 6.1l-3.114 15.030h15.375z"></path>
</symbol>

<symbol id="icon-google_logo" viewBox="0 0 32 32">
<path fill="#4285f4" style="fill: var(--color1, #4285f4)" d="M31.293 16.145c0-1.291-0.104-2.233-0.33-3.209h-14.659v5.826h8.604c-0.173 1.448-1.11 3.628-3.192 5.093l-0.029 0.195 4.635 3.61 0.321 0.032c2.949-2.738 4.649-6.768 4.649-11.547z"></path>
<path fill="#34a853" style="fill: var(--color2, #34a853)" d="M16.306 31.494c4.215 0 7.754-1.395 10.339-3.802l-4.927-3.837c-1.318 0.924-3.088 1.57-5.412 1.57-4.129 0-7.633-2.738-8.882-6.523l-0.183 0.016-4.819 3.75-0.063 0.176c2.567 5.128 7.841 8.651 13.948 8.651z"></path>
<path fill="#fbbc05" style="fill: var(--color3, #fbbc05)" d="M7.424 18.901c-0.33-0.977-0.52-2.023-0.52-3.105s0.191-2.128 0.503-3.105l-0.009-0.208-4.88-3.81-0.16 0.076c-1.058 2.128-1.665 4.518-1.665 7.047s0.607 4.919 1.665 7.047l5.066-3.942z"></path>
<path fill="#eb4335" style="fill: var(--color4, #eb4335)" d="M16.306 6.168c2.932 0 4.909 1.273 6.037 2.337l4.406-4.326c-2.706-2.529-6.228-4.081-10.443-4.081-6.106 0-11.38 3.523-13.948 8.651l5.048 3.942c1.266-3.785 4.771-6.523 8.899-6.523z"></path>
</symbol>

<symbol id="icon-eva_lock-fill" viewBox="0 0 32 32">
<path d="M16 21.024c0.724 0 1.311-0.587 1.311-1.311s-0.587-1.311-1.311-1.311c-0.724 0-1.311 0.587-1.311 1.311s0.587 1.311 1.311 1.311z"></path>
<path d="M22.557 10.532h-1.311v-2.479c0-1.391-0.553-2.726-1.536-3.709s-2.318-1.537-3.709-1.537-2.726 0.553-3.709 1.537c-0.984 0.984-1.536 2.318-1.536 3.709v2.479h-1.311c-1.043 0-2.044 0.415-2.782 1.152s-1.152 1.739-1.152 2.782v10.492c0 1.043 0.415 2.044 1.152 2.782s1.739 1.152 2.782 1.152h13.115c1.043 0 2.044-0.415 2.782-1.152s1.152-1.739 1.152-2.782v-10.492c0-1.043-0.415-2.044-1.152-2.782s-1.739-1.152-2.782-1.152zM13.377 8.053c-0.018-0.714 0.248-1.407 0.74-1.925s1.169-0.821 1.883-0.842c0.714 0.021 1.391 0.323 1.883 0.842s0.758 1.211 0.74 1.925v2.479h-5.246v-2.479zM16 23.646c-0.778 0-1.539-0.231-2.186-0.663s-1.151-1.047-1.449-1.766-0.376-1.51-0.224-2.273c0.152-0.763 0.527-1.464 1.077-2.014s1.251-0.925 2.014-1.077c0.763-0.152 1.554-0.074 2.273 0.224s1.333 0.802 1.766 1.449 0.663 1.408 0.663 2.186c0 1.043-0.415 2.044-1.152 2.782s-1.739 1.152-2.782 1.152z"></path>
</symbol>

<symbol id="icon-fa_handshake-o" viewBox="0 0 50 32">
<path d="M4.39 19.199c0.57 0 0.969-0.228 1.197-0.684s0.228-0.912 0-1.369c-0.228-0.456-0.627-0.684-1.197-0.684s-0.969 0.228-1.197 0.684c-0.228 0.456-0.228 0.912 0 1.369s0.627 0.684 1.197 0.684zM35.887 17.959c-0.143-0.185-0.417-0.542-0.823-1.069s-0.702-0.912-0.887-1.155c-0.185-0.242-0.456-0.592-0.813-1.048s-0.659-0.834-0.909-1.133c-0.249-0.299-0.538-0.634-0.866-1.005s-0.649-0.72-0.962-1.048l-2.673 2.994c-1.183 1.34-2.669 1.996-4.458 1.967s-3.254-0.727-4.394-2.095c-0.813-0.984-1.215-2.11-1.208-3.379s0.424-2.388 1.251-3.357l3.785-4.405c-0.314-0.157-0.677-0.274-1.091-0.353s-0.752-0.121-1.016-0.128-0.666-0.004-1.208 0.011c-0.542 0.014-0.891 0.021-1.048 0.021-1.311 0-2.438 0.47-3.378 1.411l-3.378 3.378h-3.314v11.632c0.071 0 0.221-0.004 0.449-0.011s0.385-0.007 0.47 0c0.085 0.007 0.224 0.021 0.417 0.043s0.339 0.053 0.438 0.096 0.225 0.103 0.374 0.182c0.15 0.078 0.282 0.175 0.396 0.289l6.351 6.244c1.639 1.582 3.257 2.373 4.854 2.373 1.112 0 2.003-0.335 2.673-1.005 0.813 0.285 1.614 0.228 2.406-0.171s1.308-1.005 1.55-1.818c1.055 0.086 1.96-0.228 2.716-0.941 0.285-0.257 0.542-0.581 0.77-0.973s0.328-0.752 0.299-1.080c0.143 0.143 0.449 0.214 0.919 0.214 0.613 0 1.162-0.15 1.646-0.449s0.837-0.677 1.058-1.133 0.306-0.966 0.257-1.529c-0.050-0.563-0.267-1.087-0.652-1.572zM39.287 19.199h2.053v-10.948h-1.989l-3.357-3.849c-0.941-1.083-2.145-1.625-3.614-1.625h-3.571c-1.269 0-2.309 0.478-3.122 1.433l-4.469 5.196c-0.399 0.47-0.599 1.005-0.599 1.604s0.192 1.133 0.577 1.604c0.613 0.727 1.397 1.098 2.352 1.112s1.746-0.335 2.373-1.048l4.127-4.661c0.356-0.328 0.738-0.481 1.144-0.46s0.741 0.214 1.005 0.577c0.264 0.364 0.324 0.766 0.182 1.208 0.228 0.271 0.627 0.72 1.197 1.347s0.998 1.112 1.283 1.454c0.413 0.513 1.001 1.265 1.764 2.256s1.222 1.593 1.379 1.807c0.741 0.941 1.169 1.939 1.283 2.994zM45.445 19.199c0.57 0 0.969-0.228 1.197-0.684s0.228-0.912 0-1.369c-0.228-0.456-0.627-0.684-1.197-0.684s-0.969 0.228-1.197 0.684c-0.228 0.456-0.228 0.912 0 1.369s0.627 0.684 1.197 0.684zM49.551 6.882v13.685c0 0.371-0.135 0.691-0.406 0.962s-0.592 0.406-0.962 0.406h-9.28c-0.385 0.927-0.969 1.686-1.753 2.277s-1.675 0.959-2.673 1.101c-0.47 0.684-1.044 1.265-1.721 1.743s-1.408 0.802-2.192 0.973c-0.599 0.756-1.344 1.336-2.235 1.743s-1.807 0.581-2.748 0.524c-0.855 0.485-1.753 0.766-2.694 0.845s-1.85-0.021-2.726-0.299-1.711-0.659-2.502-1.144c-0.791-0.485-1.529-1.062-2.213-1.732l-6.137-6.030h-7.655c-0.371 0-0.691-0.135-0.962-0.406s-0.406-0.592-0.406-0.962v-14.369c0-0.371 0.135-0.691 0.406-0.962s0.592-0.406 0.962-0.406h9.002c0.2-0.2 0.535-0.542 1.005-1.026s0.809-0.827 1.016-1.026 0.52-0.485 0.941-0.855c0.421-0.371 0.78-0.638 1.080-0.802s0.663-0.346 1.091-0.545 0.87-0.339 1.326-0.417c0.456-0.078 0.941-0.118 1.454-0.118h2.502c1.411 0 2.701 0.399 3.87 1.197 1.169-0.798 2.459-1.197 3.87-1.197h3.571c0.499 0 0.976 0.043 1.433 0.128s0.859 0.189 1.208 0.31c0.349 0.121 0.716 0.31 1.101 0.567s0.702 0.478 0.952 0.663c0.249 0.185 0.556 0.467 0.919 0.845s0.641 0.677 0.834 0.898c0.192 0.221 0.485 0.563 0.877 1.026s0.688 0.809 0.887 1.037h7.591c0.371 0 0.691 0.135 0.962 0.406s0.406 0.592 0.406 0.962z"></path>
</symbol>

<symbol id="icon-fa_hourglass-1" viewBox="0 0 28 32">
<path d="M25.143 2.288c0 3.056-0.624 5.758-1.871 8.106s-2.807 4.142-4.681 5.383c1.874 1.241 3.434 3.036 4.681 5.383s1.871 5.050 1.871 8.106h1.686c0.164 0 0.299 0.053 0.404 0.158s0.158 0.24 0.158 0.404v1.124c0 0.164-0.053 0.299-0.158 0.404s-0.24 0.158-0.404 0.158h-25.855c-0.164 0-0.299-0.053-0.404-0.158s-0.158-0.24-0.158-0.404v-1.124c0-0.164 0.053-0.299 0.158-0.404s0.24-0.158 0.404-0.158h1.686c0-3.056 0.624-5.758 1.871-8.106s2.807-4.142 4.681-5.383c-1.874-1.241-3.434-3.036-4.681-5.383s-1.871-5.050-1.871-8.106h-1.686c-0.164 0-0.299-0.053-0.404-0.158s-0.158-0.24-0.158-0.404v-1.124c0-0.164 0.053-0.299 0.158-0.404s0.24-0.158 0.404-0.158h25.855c0.164 0 0.299 0.053 0.404 0.158s0.158 0.24 0.158 0.404v1.124c0 0.164-0.053 0.299-0.158 0.404s-0.24 0.158-0.404 0.158h-1.686zM22.894 2.288h-17.986c0 0.773 0.053 1.522 0.158 2.248h17.67c0.105-0.714 0.158-1.464 0.158-2.248zM22.894 29.267c0-1.522-0.199-2.983-0.597-4.382s-0.928-2.617-1.59-3.653c-0.662-1.036-1.402-1.926-2.222-2.67s-1.674-1.297-2.564-1.66h-4.040c-0.89 0.363-1.745 0.916-2.564 1.66s-1.56 1.633-2.222 2.67c-0.662 1.036-1.191 2.254-1.59 3.653s-0.597 2.86-0.597 4.382h17.986z"></path>
</symbol>

<symbol id="icon-fa_thumbs-o-up" viewBox="0 0 29 32">
<path d="M5.004 25.462c0-0.328-0.12-0.612-0.359-0.851s-0.523-0.359-0.851-0.359c-0.328 0-0.612 0.12-0.851 0.359s-0.359 0.523-0.359 0.851c0 0.328 0.12 0.612 0.359 0.851s0.523 0.359 0.851 0.359c0.328 0 0.612-0.12 0.851-0.359s0.359-0.523 0.359-0.851zM26.795 14.567c0-0.643-0.246-1.207-0.738-1.693s-1.053-0.728-1.683-0.728h-6.658c0-0.731 0.303-1.737 0.908-3.017s0.908-2.292 0.908-3.036c0-1.236-0.202-2.15-0.605-2.743s-1.211-0.889-2.421-0.889c-0.328 0.328-0.567 0.864-0.719 1.608s-0.344 1.535-0.577 2.374-0.608 1.529-1.125 2.071c-0.277 0.29-0.763 0.864-1.457 1.721-0.050 0.063-0.195 0.252-0.435 0.567s-0.438 0.574-0.596 0.776c-0.158 0.202-0.375 0.47-0.653 0.804s-0.53 0.612-0.757 0.832c-0.227 0.221-0.47 0.444-0.728 0.671s-0.511 0.397-0.757 0.511c-0.246 0.113-0.47 0.17-0.671 0.17h-0.605v12.106h0.605c0.164 0 0.363 0.019 0.596 0.057s0.441 0.079 0.624 0.123c0.183 0.044 0.422 0.113 0.719 0.208s0.517 0.167 0.662 0.218c0.145 0.050 0.369 0.129 0.672 0.236s0.486 0.173 0.549 0.199c2.661 0.921 4.817 1.381 6.469 1.381h2.289c2.421 0 3.632-1.053 3.632-3.159 0-0.328-0.032-0.681-0.095-1.059 0.378-0.202 0.678-0.533 0.899-0.993s0.331-0.924 0.331-1.39c0-0.467-0.113-0.902-0.34-1.305 0.668-0.631 1.003-1.381 1.003-2.251 0-0.315-0.063-0.665-0.189-1.050s-0.284-0.684-0.473-0.898c0.404-0.013 0.741-0.309 1.012-0.889s0.407-1.091 0.407-1.532zM29.216 14.548c0 1.122-0.309 2.15-0.927 3.083 0.113 0.416 0.17 0.851 0.17 1.305 0 0.971-0.24 1.879-0.719 2.724 0.038 0.265 0.057 0.536 0.057 0.813 0 1.274-0.378 2.396-1.135 3.367 0.013 1.753-0.523 3.137-1.608 4.152s-2.516 1.523-4.294 1.523h-2.44c-1.211 0-2.405-0.142-3.585-0.426s-2.544-0.697-4.095-1.239c-1.463-0.504-2.333-0.757-2.61-0.757h-5.448c-0.668 0-1.239-0.236-1.712-0.709s-0.709-1.044-0.709-1.712v-12.106c0-0.668 0.236-1.239 0.709-1.712s1.044-0.709 1.712-0.709h5.183c0.454-0.303 1.318-1.28 2.591-2.932 0.731-0.946 1.406-1.753 2.024-2.421 0.303-0.315 0.526-0.854 0.671-1.617s0.337-1.561 0.577-2.393c0.24-0.832 0.63-1.513 1.173-2.043 0.492-0.467 1.059-0.7 1.702-0.7 1.059 0 2.011 0.205 2.856 0.615s1.488 1.050 1.929 1.92c0.441 0.87 0.662 2.043 0.662 3.518 0 1.173-0.303 2.383-0.908 3.632h3.329c1.311 0 2.446 0.479 3.405 1.438s1.438 2.087 1.438 3.386z"></path>
</symbol>

<symbol id="icon-fa_wrench" viewBox="0 0 31 32">
<path d="M7.264 25.462c0-0.328-0.12-0.612-0.359-0.851s-0.523-0.359-0.851-0.359-0.612 0.12-0.851 0.359c-0.24 0.24-0.359 0.523-0.359 0.851s0.12 0.612 0.359 0.851c0.24 0.24 0.523 0.359 0.851 0.359s0.612-0.12 0.851-0.359c0.24-0.24 0.359-0.523 0.359-0.851zM19.445 17.518l-12.9 12.9c-0.467 0.467-1.034 0.7-1.702 0.7-0.656 0-1.229-0.233-1.721-0.7l-2.005-2.043c-0.479-0.454-0.719-1.021-0.719-1.702 0-0.668 0.24-1.242 0.719-1.721l12.881-12.881c0.492 1.236 1.214 2.33 2.166 3.282s2.046 1.674 3.282 2.166zM31.438 9.29c0 0.492-0.145 1.16-0.435 2.005-0.593 1.69-1.63 3.061-3.112 4.114s-3.112 1.579-4.89 1.579c-2.333 0-4.328-0.829-5.987-2.487s-2.487-3.654-2.487-5.987 0.829-4.329 2.487-5.987c1.658-1.658 3.654-2.487 5.987-2.487 0.731 0 1.497 0.104 2.298 0.312s1.479 0.501 2.033 0.88c0.202 0.139 0.303 0.315 0.303 0.53s-0.101 0.391-0.303 0.53l-5.542 3.197v4.237l3.651 2.024c0.063-0.038 0.561-0.344 1.494-0.917s1.788-1.085 2.563-1.532c0.776-0.448 1.22-0.671 1.334-0.671 0.189 0 0.337 0.063 0.445 0.189s0.161 0.284 0.161 0.473z"></path>
</symbol>

<symbol id="icon-fa_certificate" viewBox="0 0 32 32">
<path fill="#ff6a03" style="fill: var(--color1, #ff6a03)" d="M28.459 15.778l2.828 2.766c0.41 0.382 0.546 0.861 0.41 1.434-0.164 0.56-0.519 0.909-1.066 1.045l-3.852 0.984 1.086 3.811c0.164 0.56 0.034 1.038-0.389 1.434-0.396 0.424-0.874 0.553-1.434 0.389l-3.811-1.086-0.984 3.852c-0.137 0.546-0.485 0.902-1.045 1.066-0.164 0.027-0.294 0.041-0.389 0.041-0.424 0-0.772-0.15-1.045-0.451l-2.766-2.828-2.766 2.828c-0.383 0.41-0.861 0.546-1.434 0.41-0.56-0.15-0.909-0.505-1.045-1.066l-0.984-3.852-3.811 1.086c-0.56 0.164-1.038 0.034-1.434-0.389-0.423-0.396-0.553-0.874-0.389-1.434l1.086-3.811-3.852-0.984c-0.546-0.137-0.902-0.485-1.066-1.045-0.137-0.574 0-1.052 0.41-1.434l2.828-2.766-2.828-2.766c-0.41-0.383-0.546-0.861-0.41-1.434 0.164-0.56 0.519-0.909 1.066-1.045l3.852-0.984-1.086-3.811c-0.164-0.56-0.034-1.038 0.389-1.434 0.396-0.423 0.874-0.553 1.434-0.389l3.811 1.086 0.984-3.852c0.137-0.56 0.485-0.908 1.045-1.045 0.56-0.164 1.038-0.034 1.434 0.389l2.766 2.848 2.766-2.848c0.396-0.41 0.874-0.54 1.434-0.389 0.56 0.137 0.909 0.485 1.045 1.045l0.984 3.852 3.811-1.086c0.56-0.164 1.038-0.034 1.434 0.389 0.424 0.396 0.553 0.874 0.389 1.434l-1.086 3.811 3.852 0.984c0.546 0.137 0.902 0.485 1.066 1.045 0.137 0.574 0 1.052-0.41 1.434l-2.828 2.766z"></path>
<path fill="#fff" style="fill: var(--color2, #fff)" d="M22.615 12.548c0 0.219-0.077 0.404-0.23 0.557l-7.049 7.049c-0.153 0.153-0.339 0.23-0.557 0.23s-0.404-0.076-0.557-0.23l-4.082-4.082c-0.153-0.153-0.229-0.339-0.229-0.557s0.077-0.404 0.229-0.557l1.115-1.115c0.153-0.153 0.339-0.229 0.557-0.229s0.404 0.076 0.557 0.229l2.41 2.418 5.377-5.385c0.153-0.153 0.339-0.229 0.557-0.229s0.404 0.077 0.557 0.229l1.115 1.115c0.153 0.153 0.23 0.339 0.23 0.557z"></path>
</symbol>

<symbol id="icon-Ellipse-4" viewBox="0 0 34 32">
<path d="M32.8 16c0 8.836-7.164 16-16 16s-16-7.164-16-16c0-8.837 7.163-16 16-16s16 7.163 16 16z"></path>
</symbol>

<symbol id="icon-left_errow" viewBox="0 0 33 32">
<path d="M19.334 6.667c0.311-0.001 0.613 0.108 0.853 0.307 0.135 0.112 0.247 0.249 0.328 0.405s0.132 0.325 0.148 0.5c0.016 0.175-0.002 0.351-0.054 0.518s-0.137 0.323-0.249 0.458l-5.973 7.147 5.76 7.16c0.111 0.136 0.193 0.293 0.243 0.462s0.066 0.345 0.047 0.52c-0.019 0.175-0.071 0.344-0.156 0.498s-0.198 0.29-0.335 0.4c-0.138 0.121-0.299 0.213-0.475 0.269s-0.36 0.075-0.543 0.056c-0.183-0.019-0.36-0.075-0.52-0.166s-0.299-0.213-0.41-0.36l-6.44-8c-0.196-0.239-0.303-0.538-0.303-0.847s0.107-0.608 0.303-0.847l6.667-8c0.134-0.161 0.304-0.289 0.496-0.372s0.401-0.12 0.611-0.108z"></path>
</symbol>

<symbol id="icon-close" viewBox="0 0 32 32">
<path stroke-width="3" stroke-miterlimit="4" stroke-linecap="round" stroke-linejoin="miter" d="M1.855 30.14l28.288-28.28M1.855 1.86l28.288 28.28"></path>
</symbol>

</defs>
</svg>